<svg width="98" height="103" viewBox="0 0 98 103" fill="none" xmlns="http://www.w3.org/2000/svg">
<g filter="url(#filter0_f_6409_12462)">
<ellipse cx="48.6168" cy="53.6836" rx="42.6168" ry="42.6165" fill="url(#paint0_radial_6409_12462)" fill-opacity="0.6"/>
</g>
<rect x="14.9717" y="18.2444" width="69.9812" height="69.0836" rx="34.5418" fill="url(#paint1_radial_6409_12462)"/>
<g filter="url(#filter1_d_6409_12462)">
<path opacity="0.6" fill-rule="evenodd" clip-rule="evenodd" d="M72.0286 91.9774C79.7674 91.9774 86.041 85.7038 86.041 77.965C86.041 70.2262 79.7674 63.9526 72.0286 63.9526C64.2897 63.9526 58.0161 70.2262 58.0161 77.965C58.0161 85.7038 64.2897 91.9774 72.0286 91.9774Z" fill="#BFDDFF"/>
<g clip-path="url(#clip0_6409_12462)">
<path d="M77.6742 69.1562H66.983C66.5818 69.1562 66.2566 69.4815 66.2566 69.8827C66.2566 72.1946 67.175 74.4118 68.8098 76.0466L69.8673 77.1041C69.9723 77.2091 70.0249 77.2617 70.0624 77.3121C70.2918 77.6197 70.2918 78.0414 70.0624 78.349C70.0249 78.3994 69.9723 78.452 69.8673 78.557L68.8098 79.6145C67.175 81.2493 66.2566 83.4665 66.2566 85.7784C66.2566 86.1796 66.5818 86.5048 66.983 86.5048H77.6742C78.0754 86.5048 78.4006 86.1796 78.4006 85.7784C78.4006 83.4665 77.4822 81.2493 75.8474 79.6145L74.7899 78.557C74.6849 78.452 74.6324 78.3994 74.5948 78.349C74.3654 78.0414 74.3654 77.6197 74.5948 77.3121C74.6324 77.2617 74.6849 77.2091 74.7899 77.1041L75.8474 76.0466C77.4822 74.4118 78.4006 72.1946 78.4006 69.8827C78.4006 69.4815 78.0754 69.1562 77.6742 69.1562Z" stroke="#E9EDF1" stroke-width="4" stroke-linecap="round" stroke-linejoin="round"/>
</g>
</g>
<path d="M38.1542 49.8182C39.6408 49.8182 40.8458 48.6131 40.8458 47.1266C40.8458 45.6401 39.6408 44.4351 38.1542 44.4351C36.6677 44.4351 35.4626 45.6401 35.4626 47.1266C35.4626 48.6131 36.6677 49.8182 38.1542 49.8182Z" fill="white"/>
<path d="M61.4814 49.8184C62.9679 49.8184 64.173 48.6134 64.173 47.1269C64.173 45.6404 62.9679 44.4353 61.4814 44.4353C59.9949 44.4353 58.7898 45.6404 58.7898 47.1269C58.7898 48.6134 59.9949 49.8184 61.4814 49.8184Z" fill="white"/>
<ellipse cx="9.13996" cy="76.1131" rx="2.24299" ry="2.24297" fill="url(#paint2_radial_6409_12462)"/>
<ellipse cx="10.037" cy="55.4766" rx="1.34579" ry="1.34578" fill="url(#paint3_radial_6409_12462)"/>
<ellipse cx="8.69132" cy="66.6918" rx="3.58878" ry="3.58876" fill="url(#paint4_radial_6409_12462)"/>
<ellipse cx="18.5607" cy="81.9443" rx="2.69158" ry="2.69157" fill="url(#paint5_radial_6409_12462)"/>
<ellipse cx="9.14023" cy="83.2889" rx="1.34579" ry="1.34578" fill="url(#paint6_radial_6409_12462)"/>
<ellipse cx="88.9903" cy="85.0846" rx="1.34579" ry="1.34578" fill="url(#paint7_radial_6409_12462)"/>
<ellipse cx="93.0277" cy="75.6649" rx="3.58878" ry="3.58876" fill="url(#paint8_radial_6409_12462)"/>
<g filter="url(#filter2_f_6409_12462)">
<path d="M21.8401 11.9644C23.4967 11.9644 24.8397 13.3079 24.8401 14.9644V19.731C24.8401 21.3878 23.4969 22.7309 21.8401 22.731H20.9055C20.9706 23.0931 21.0768 23.5515 21.2522 24.0776C21.6971 25.412 22.5832 26.305 22.5979 26.3198C20.893 25.7515 19.4509 24.0208 18.6272 22.731H9.89673C8.23987 22.731 6.89673 21.3878 6.89673 19.731V14.9644C6.89712 13.3078 8.24012 11.9644 9.89673 11.9644H21.8401Z" fill="url(#paint9_linear_6409_12462)"/>
<path d="M78.0833 2.99414C76.4266 2.99432 75.0833 4.3374 75.0833 5.99414V15.4707C75.0835 17.1273 76.4267 18.4705 78.0833 18.4707H79.0188C78.9537 18.9913 78.8475 19.6491 78.6721 20.4053C78.2235 22.3398 77.3264 23.6299 77.3264 23.6299C79.0311 22.813 80.4724 20.3249 81.2961 18.4707H90.0276C91.6842 18.4706 93.0274 17.1273 93.0276 15.4707V5.99414C93.0276 4.33735 91.6843 2.99425 90.0276 2.99414H78.0833Z" fill="url(#paint10_linear_6409_12462)"/>
<path d="M8.47852 28.1123C10.2374 28.1123 11.6631 29.538 11.6631 31.2969C11.663 32.2654 11.2291 33.1308 10.5469 33.7148C10.5922 33.7542 10.638 33.7964 10.6875 33.8369C11.3332 34.3651 12.0607 34.5312 12.0693 34.5332C11.2897 34.7253 10.3759 34.5373 9.62207 34.2686C9.26702 34.4053 8.88173 34.4814 8.47852 34.4814C6.7197 34.4814 5.29403 33.0557 5.29395 31.2969C5.29395 29.538 6.71965 28.1123 8.47852 28.1123Z" fill="url(#paint11_linear_6409_12462)"/>
<path d="M91.022 23.6279C88.0492 23.6282 85.6393 26.0379 85.6392 29.0107C85.6392 30.6475 86.3711 32.1123 87.5239 33.0996C87.4483 33.1653 87.3711 33.2342 87.2886 33.3018C86.1906 34.2 84.9526 34.4795 84.9526 34.4795C86.2694 34.804 87.8128 34.4869 89.0864 34.0332C89.6873 34.265 90.3394 34.3945 91.022 34.3945C93.995 34.3945 96.4058 31.9838 96.4058 29.0107C96.4057 26.0378 93.995 23.6279 91.022 23.6279Z" fill="url(#paint12_linear_6409_12462)"/>
<path d="M66.7988 0.300049C63.8259 0.300049 61.4152 3.69416 61.415 7.8811C61.415 10.1859 62.1474 12.2494 63.2998 13.6399C63.2238 13.7329 63.1464 13.8295 63.0635 13.925C61.9763 15.1775 60.7523 15.5756 60.7285 15.5833C62.0455 16.0402 63.5886 15.5945 64.8623 14.9553C65.4634 15.282 66.1159 15.4631 66.7988 15.4631C69.7717 15.4629 72.1816 12.0681 72.1816 7.8811C72.1815 3.69433 69.7716 0.30032 66.7988 0.300049Z" fill="url(#paint13_linear_6409_12462)"/>
</g>
<defs>
<filter id="filter0_f_6409_12462" x="0" y="5.06714" width="97.2334" height="97.2329" filterUnits="userSpaceOnUse" color-interpolation-filters="sRGB">
<feFlood flood-opacity="0" result="BackgroundImageFix"/>
<feBlend mode="normal" in="SourceGraphic" in2="BackgroundImageFix" result="shape"/>
<feGaussianBlur stdDeviation="3" result="effect1_foregroundBlur_6409_12462"/>
</filter>
<filter id="filter1_d_6409_12462" x="54.0161" y="59.9526" width="34.0249" height="34.0247" filterUnits="userSpaceOnUse" color-interpolation-filters="sRGB">
<feFlood flood-opacity="0" result="BackgroundImageFix"/>
<feColorMatrix in="SourceAlpha" type="matrix" values="0 0 0 0 0 0 0 0 0 0 0 0 0 0 0 0 0 0 127 0" result="hardAlpha"/>
<feOffset dx="-1" dy="-1"/>
<feGaussianBlur stdDeviation="1.5"/>
<feColorMatrix type="matrix" values="0 0 0 0 0 0 0 0 0 0 0 0 0 0 0 0 0 0 0.1 0"/>
<feBlend mode="normal" in2="BackgroundImageFix" result="effect1_dropShadow_6409_12462"/>
<feBlend mode="normal" in="SourceGraphic" in2="effect1_dropShadow_6409_12462" result="shape"/>
</filter>
<filter id="filter2_f_6409_12462" x="4.99395" y="4.88162e-05" width="91.7118" height="34.9123" filterUnits="userSpaceOnUse" color-interpolation-filters="sRGB">
<feFlood flood-opacity="0" result="BackgroundImageFix"/>
<feBlend mode="normal" in="SourceGraphic" in2="BackgroundImageFix" result="shape"/>
<feGaussianBlur stdDeviation="0.15" result="effect1_foregroundBlur_6409_12462"/>
</filter>
<radialGradient id="paint0_radial_6409_12462" cx="0" cy="0" r="1" gradientUnits="userSpaceOnUse" gradientTransform="translate(48.6168 53.6836) rotate(90) scale(42.6826 42.6828)">
<stop stop-color="#0077FF"/>
<stop offset="1" stop-color="#E1EFFF"/>
</radialGradient>
<radialGradient id="paint1_radial_6409_12462" cx="0" cy="0" r="1" gradientUnits="userSpaceOnUse" gradientTransform="translate(49.9623 52.7862) rotate(90) scale(34.5418 34.9906)">
<stop stop-color="#C7E1FF"/>
<stop offset="1" stop-color="#70A9FF"/>
</radialGradient>
<radialGradient id="paint2_radial_6409_12462" cx="0" cy="0" r="1" gradientUnits="userSpaceOnUse" gradientTransform="translate(9.13996 76.1131) rotate(90) scale(2.24297 2.24299)">
<stop stop-color="#70A9FF"/>
<stop offset="1" stop-color="#C7E1FF"/>
</radialGradient>
<radialGradient id="paint3_radial_6409_12462" cx="0" cy="0" r="1" gradientUnits="userSpaceOnUse" gradientTransform="translate(10.037 55.4766) rotate(90) scale(1.34578 1.34579)">
<stop stop-color="#70A9FF"/>
<stop offset="1" stop-color="#C7E1FF"/>
</radialGradient>
<radialGradient id="paint4_radial_6409_12462" cx="0" cy="0" r="1" gradientUnits="userSpaceOnUse" gradientTransform="translate(8.69132 66.6918) rotate(90) scale(3.58876 3.58878)">
<stop stop-color="#70A9FF"/>
<stop offset="1" stop-color="#C7E1FF"/>
</radialGradient>
<radialGradient id="paint5_radial_6409_12462" cx="0" cy="0" r="1" gradientUnits="userSpaceOnUse" gradientTransform="translate(18.5607 81.9443) rotate(90) scale(2.69157 2.69158)">
<stop stop-color="#70A9FF"/>
<stop offset="1" stop-color="#C7E1FF"/>
</radialGradient>
<radialGradient id="paint6_radial_6409_12462" cx="0" cy="0" r="1" gradientUnits="userSpaceOnUse" gradientTransform="translate(9.14023 83.2889) rotate(90) scale(1.34578 1.34579)">
<stop stop-color="#70A9FF"/>
<stop offset="1" stop-color="#C7E1FF"/>
</radialGradient>
<radialGradient id="paint7_radial_6409_12462" cx="0" cy="0" r="1" gradientUnits="userSpaceOnUse" gradientTransform="translate(88.9903 85.0846) rotate(90) scale(1.34578 1.34579)">
<stop stop-color="#70A9FF"/>
<stop offset="1" stop-color="#C7E1FF"/>
</radialGradient>
<radialGradient id="paint8_radial_6409_12462" cx="0" cy="0" r="1" gradientUnits="userSpaceOnUse" gradientTransform="translate(93.0277 75.6649) rotate(90) scale(3.58876 3.58878)">
<stop stop-color="#70A9FF"/>
<stop offset="1" stop-color="#C7E1FF"/>
</radialGradient>
<linearGradient id="paint9_linear_6409_12462" x1="15.8684" y1="11.9644" x2="15.8684" y2="26.3198" gradientUnits="userSpaceOnUse">
<stop stop-color="#C7E1FF" stop-opacity="0.83"/>
<stop offset="1" stop-color="#70A9FF"/>
</linearGradient>
<linearGradient id="paint10_linear_6409_12462" x1="84.0554" y1="2.99414" x2="84.0554" y2="23.6299" gradientUnits="userSpaceOnUse">
<stop stop-color="#C7E1FF" stop-opacity="0.83"/>
<stop offset="1" stop-color="#70A9FF"/>
</linearGradient>
<linearGradient id="paint11_linear_6409_12462" x1="8.68164" y1="28.1123" x2="8.68164" y2="34.6118" gradientUnits="userSpaceOnUse">
<stop stop-color="#C7E1FF" stop-opacity="0.83"/>
<stop offset="1" stop-color="#70A9FF"/>
</linearGradient>
<linearGradient id="paint12_linear_6409_12462" x1="90.6792" y1="23.6279" x2="90.6792" y2="34.6123" gradientUnits="userSpaceOnUse">
<stop stop-color="#C7E1FF" stop-opacity="0.83"/>
<stop offset="1" stop-color="#70A9FF"/>
</linearGradient>
<linearGradient id="paint13_linear_6409_12462" x1="66.4551" y1="0.300049" x2="66.4551" y2="15.7704" gradientUnits="userSpaceOnUse">
<stop stop-color="#C7E1FF" stop-opacity="0.83"/>
<stop offset="1" stop-color="#70A9FF"/>
</linearGradient>
<clipPath id="clip0_6409_12462">
<rect width="20.8183" height="20.8183" fill="white" transform="translate(61.9194 67.4214)"/>
</clipPath>
</defs>
</svg>
